<svg width="24" height="24" viewBox="0 0 24 24" fill="none" xmlns="http://www.w3.org/2000/svg">
<g clip-path="url(#clip0_1136_78188)">
<path d="M11.5 14.1173C9.88214 14.13 8.29948 13.6451 6.96626 12.7286C5.61783 11.8217 4.58198 10.5209 4 9.00362H19C18.4179 10.5205 17.382 11.821 16.0337 12.7277C14.7006 13.6446 13.1179 14.1297 11.5 14.1173ZM11.5 12.7495C12.752 12.7589 13.9802 12.4068 15.0371 11.7356C16.0983 11.0729 16.9515 10.1249 17.4991 9H5.5C6.04756 10.1249 6.90078 11.0729 7.96201 11.7356C9.01879 12.4083 10.2473 12.7616 11.5 12.7532V12.7495Z" fill="#AEAEAE"/>
<path d="M10.2656 13.3594L9.67527 15.5612" stroke="#AEAEAE" stroke-width="1.50018"/>
<path d="M13.4375 12.7109L14.1459 15.3532" stroke="#AEAEAE" stroke-width="1.50018"/>
<path d="M7.39844 11.5352L6.03066 13.9042" stroke="#AEAEAE" stroke-width="1.5"/>
<path d="M16.0625 11.5352L17.4303 13.9042" stroke="#AEAEAE" stroke-width="1.5"/>
</g>
<defs>
<clipPath id="clip0_1136_78188">
<rect width="24" height="24" fill="white"/>
</clipPath>
</defs>
</svg>
