<svg width="24" height="24" viewBox="0 0 24 24" fill="none" xmlns="http://www.w3.org/2000/svg">
<g clip-path="url(#clip0_1136_78185)">
<path d="M15.75 9.66667H15.125V8.33333C15.125 6.49333 13.725 5 12 5C10.275 5 8.875 6.49333 8.875 8.33333V9.66667H8.25C7.5625 9.66667 7 10.2667 7 11V17.6667C7 18.4 7.5625 19 8.25 19H15.75C16.4375 19 17 18.4 17 17.6667V11C17 10.2667 16.4375 9.66667 15.75 9.66667ZM10.125 8.33333C10.125 7.22667 10.9625 6.33333 12 6.33333C13.0375 6.33333 13.875 7.22667 13.875 8.33333V9.66667H10.125V8.33333ZM15.75 17.6667H8.25V11H15.75V17.6667ZM12 15.6667C12.6875 15.6667 13.25 15.0667 13.25 14.3333C13.25 13.6 12.6875 13 12 13C11.3125 13 10.75 13.6 10.75 14.3333C10.75 15.0667 11.3125 15.6667 12 15.6667Z" fill="#969A9F"/>
</g>
<defs>
<clipPath id="clip0_1136_78185">
<rect width="24" height="24" fill="white"/>
</clipPath>
</defs>
</svg>
