<svg width="24" height="24" viewBox="0 0 24 24" fill="none" xmlns="http://www.w3.org/2000/svg">
<g clip-path="url(#clip0_1136_78561)">
<path d="M11.9984 15.3659C12.4416 15.3738 12.8816 15.2907 13.2915 15.122C13.7013 14.9533 14.0723 14.7024 14.3814 14.3848C14.6991 14.0757 14.95 13.7048 15.1187 13.2949C15.2874 12.8851 15.3704 12.445 15.3624 12.0019C15.3703 11.5587 15.2874 11.1186 15.1186 10.7088C14.9499 10.2989 14.699 9.92801 14.3814 9.61886C14.0723 9.30127 13.7013 9.05039 13.2915 8.88167C12.8816 8.71295 12.4416 8.62995 11.9984 8.63784C11.5553 8.62995 11.1152 8.71295 10.7054 8.88167C10.2955 9.05039 9.92459 9.30127 9.61544 9.61886C9.29785 9.92801 9.04696 10.2989 8.87824 10.7088C8.70952 11.1186 8.62655 11.5587 8.63444 12.0019C8.62649 12.445 8.70943 12.8851 8.87815 13.2949C9.04688 13.7048 9.2978 14.0757 9.61544 14.3848C9.92459 14.7024 10.2955 14.9533 10.7054 15.122C11.1152 15.2907 11.5553 15.3738 11.9984 15.3659ZM11.9984 14.0199C11.7325 14.0246 11.4684 13.9747 11.2224 13.8734C10.9765 13.7721 10.7539 13.6215 10.5684 13.4309C10.3778 13.2454 10.2272 13.0228 10.1259 12.7768C10.0246 12.5309 9.97473 12.2668 9.97944 12.0008C9.97473 11.7349 10.0246 11.4708 10.1259 11.2249C10.2272 10.9789 10.3778 10.7563 10.5684 10.5708C10.7539 10.3802 10.9765 10.2296 11.2224 10.1283C11.4684 10.027 11.7325 9.97712 11.9984 9.98183C12.2644 9.97712 12.5285 10.027 12.7744 10.1283C13.0204 10.2296 13.243 10.3802 13.4284 10.5708C13.6191 10.7563 13.7697 10.9789 13.871 11.2249C13.9723 11.4708 14.0221 11.7349 14.0174 12.0008C14.0221 12.2668 13.9723 12.5309 13.871 12.7768C13.7697 13.0228 13.6191 13.2454 13.4284 13.4309C13.243 13.6215 13.0204 13.7721 12.7744 13.8734C12.5285 13.9747 12.2644 14.0246 11.9984 14.0199ZM11.9984 17.6088C10.2242 17.6227 8.48853 17.091 7.02644 16.0858C5.54765 15.0913 4.41167 13.6647 3.77344 12.0008C4.41179 10.3372 5.54777 8.91108 7.02644 7.91683C8.48842 6.91128 10.2241 6.37929 11.9984 6.39284C13.7727 6.37899 15.5083 6.91066 16.9704 7.91585C18.4491 8.9101 19.5851 10.3363 20.2234 11.9998C19.585 13.6634 18.4491 15.0895 16.9704 16.0838C15.5086 17.0897 13.7729 17.6221 11.9984 17.6088ZM11.9984 16.1128C13.3715 16.1231 14.7184 15.737 15.8774 15.0008C17.0412 14.2741 17.9769 13.2345 18.5774 12.0008C17.977 10.7671 17.0413 9.72745 15.8774 9.00081C14.7184 8.26467 13.3715 7.87857 11.9984 7.88881C10.6254 7.87857 9.27853 8.26467 8.11944 9.00081C6.9556 9.72745 6.01989 10.7671 5.41944 12.0008C6.01993 13.2345 6.95563 14.2741 8.11944 15.0008C9.27853 15.737 10.6254 16.1231 11.9984 16.1128Z" fill="#AEAEAE"/>
<path d="M10 5L10.6474 7.41471" stroke="#AEAEAE" stroke-width="1.50018"/>
<path d="M6 7L7.25 9.16506" stroke="#AEAEAE" stroke-width="1.5"/>
<path d="M18.25 7L17 9.16506" stroke="#AEAEAE" stroke-width="1.5"/>
<path d="M14.6484 5L14.001 7.41471" stroke="#AEAEAE" stroke-width="1.50018"/>
</g>
<defs>
<clipPath id="clip0_1136_78561">
<rect width="24" height="24" fill="white"/>
</clipPath>
</defs>
</svg>
