<svg width="36" height="36" viewBox="0 0 36 36" fill="none" xmlns="http://www.w3.org/2000/svg">
<rect width="36" height="36" rx="4" fill="#5B29C7"/>
<path d="M17.8073 11.6961C17.8073 11.6961 17.9121 15.4113 21.0316 17.0938C22.6397 15.8983 23.5706 13.8415 23.1031 11.5995C22.6679 9.50239 20.9631 7.83599 18.8552 7.44153C15.4053 6.79751 12.3906 9.42188 12.3906 12.7547C12.3906 14.5338 13.2531 16.1076 14.5831 17.0938C17.7025 15.4113 17.8073 11.6961 17.8073 11.6961Z" fill="white"/>
<path d="M15.1575 17.9079C15.0202 17.8313 14.891 17.7507 14.7618 17.662C14.7013 17.6257 14.6447 17.5854 14.5801 17.5531C13.587 17.1177 12.4364 16.9604 11.2333 17.2185C9.11781 17.666 7.43833 19.3957 7.06287 21.5285C6.46133 24.9516 9.08551 27.9271 12.4 27.9271C15.3068 27.9271 17.6686 25.6451 17.8099 22.7784C17.7453 22.0567 17.3618 19.4481 15.1534 17.9079H15.1575Z" fill="white"/>
<path d="M24.3853 17.2167C23.1822 16.9626 22.0316 17.1159 21.0385 17.5514C20.9739 17.5877 20.9173 17.624 20.8568 17.6603C20.7276 17.749 20.5944 17.8296 20.4611 17.9063C18.2528 19.4467 17.8693 22.0557 17.8047 22.7775C17.946 25.6447 20.3118 27.9271 23.2145 27.9271C26.533 27.9271 29.1531 24.9511 28.5516 21.5275C28.1762 19.3943 26.4967 17.6643 24.3772 17.2127L24.3853 17.2167Z" fill="white"/>
</svg>
